<svg width="21" height="22" viewBox="0 0 21 22" fill="none" xmlns="http://www.w3.org/2000/svg">
<path d="M8.60001 22C7.27664 22 6.20001 20.9233 6.20001 19.6C6.20001 18.2766 7.27664 17.2 8.60001 17.2C9.92339 17.2 11 18.2766 11 19.6C11 20.9233 9.92339 22 8.60001 22ZM8.60001 18.4C7.93832 18.4 7.40001 18.9383 7.40001 19.6C7.40001 20.2616 7.93832 20.7999 8.60001 20.7999C9.2617 20.7999 9.80001 20.2616 9.80001 19.6C9.80001 18.9383 9.2617 18.4 8.60001 18.4Z" fill="black"/>
<path d="M17 22C15.6766 22 14.6 20.9233 14.6 19.6C14.6 18.2766 15.6766 17.2 17 17.2C18.3234 17.2 19.4 18.2766 19.4 19.6C19.4 20.9233 18.3234 22 17 22ZM17 18.4C16.3383 18.4 15.8 18.9383 15.8 19.6C15.8 20.2616 16.3383 20.7999 17 20.7999C17.6617 20.7999 18.2 20.2616 18.2 19.6C18.2 18.9383 17.6617 18.4 17 18.4Z" fill="black"/>
<path d="M20.0474 3.35978C19.746 3.00397 19.2913 2.7999 18.8 2.7999H4.10831L3.98913 2.08492C3.83163 1.14004 2.95793 0.399902 2.00001 0.399902H0.800012C0.468653 0.399902 0.200012 0.668543 0.200012 0.999902C0.200012 1.33126 0.468653 1.5999 0.800012 1.5999H2.00001C2.3685 1.5999 2.74488 1.91872 2.80547 2.28221L4.81092 14.3149C4.96837 15.2598 5.8421 15.9999 6.79999 15.9999H18.8C19.1314 15.9999 19.4 15.7313 19.4 15.3999C19.4 15.0685 19.1314 14.7999 18.8 14.7999H6.79999C6.4315 14.7999 6.05512 14.4811 5.99454 14.1176L5.69852 12.3414L17.6565 11.3016C18.5867 11.2207 19.4355 10.4359 19.5891 9.51489L20.3945 4.68221C20.4753 4.1976 20.3488 3.71558 20.0474 3.35978ZM19.2109 4.48492L18.4054 9.31759C18.3422 9.69695 17.9357 10.0728 17.5525 10.1061L5.50066 11.1541L4.3083 3.99993H18.8C18.9399 3.99993 19.0577 4.04807 19.1318 4.13544C19.2058 4.22286 19.2339 4.34692 19.2109 4.48492Z" fill="black"/>
</svg>
