<svg width="20" height="18" viewBox="0 0 20 18" fill="none" xmlns="http://www.w3.org/2000/svg">
<path d="M18.0586 1.44913C15.9297 -0.363367 12.7461 -0.0625861 10.7695 1.97648L9.99999 2.77335L9.23046 1.98038C7.63671 0.331945 4.42187 -0.660242 1.9414 1.44913C-0.511728 3.54288 -0.640634 7.3007 1.55468 9.56632L9.11327 17.371C9.35546 17.621 9.67577 17.7499 9.99608 17.7499C10.3164 17.7499 10.6367 17.6249 10.8789 17.371L18.4375 9.56632C20.6406 7.3007 20.5117 3.54288 18.0586 1.44913ZM17.5469 8.69913L10.0156 16.5038L2.45312 8.69913C0.953116 7.15226 0.640616 4.20304 2.7539 2.40226C4.89452 0.574133 7.41015 1.89835 8.33202 2.85148L9.99999 4.57413L11.668 2.85148C12.5742 1.91398 15.1133 0.585851 17.2461 2.40226C19.3555 4.19913 19.0469 7.14835 17.5469 8.69913Z" fill="black"/>
</svg>
