<svg width="21" height="21" viewBox="0 0 21 21" fill="none" xmlns="http://www.w3.org/2000/svg">
<path d="M10.45 11.55C7.11401 11.55 4.4 8.95935 4.4 5.775C4.4 2.59065 7.11401 0 10.45 0C13.786 0 16.5 2.59065 16.5 5.775C16.5 8.95935 13.786 11.55 10.45 11.55ZM10.45 1.05C7.72056 1.05 5.5 3.16963 5.5 5.775C5.5 8.38037 7.72056 10.5 10.45 10.5C13.1794 10.5 15.4 8.38037 15.4 5.775C15.4 3.16963 13.1794 1.05 10.45 1.05Z" fill="black"/>
<path d="M19.25 21H1.65C0.740201 21 0 20.2935 0 19.425C0 19.3535 0.0152969 17.6555 1.3475 15.96C2.12296 14.973 3.18471 14.1889 4.50319 13.6296C6.11359 12.9464 8.11439 12.6 10.45 12.6C12.7856 12.6 14.7864 12.9464 16.3968 13.6296C17.7153 14.189 18.777 14.973 19.5525 15.96C20.8847 17.6555 20.9 19.3535 20.9 19.425C20.9 20.2935 20.1598 21 19.25 21ZM10.45 13.65C6.61461 13.65 3.78411 14.6506 2.26445 16.5435C1.12554 17.9621 1.10011 19.4126 1.1 19.4271C1.1 19.7145 1.34675 19.95 1.65 19.95H19.25C19.5533 19.95 19.8 19.7145 19.8 19.425C19.7999 19.4127 19.7745 17.9621 18.6356 16.5435C17.1159 14.6506 14.2854 13.65 10.45 13.65Z" fill="black"/>
</svg>
